<svg width="54" height="17" viewBox="0 0 54 17" fill="none" xmlns="http://www.w3.org/2000/svg">
<circle cx="45.5" cy="8.5" r="8.5" fill="#FF0000"/>
<path d="M7.46582 9.93945C7.46582 10.1901 7.43327 10.4163 7.36816 10.6182C7.30632 10.8167 7.22331 10.9925 7.11914 11.1455C7.01497 11.2985 6.8929 11.4287 6.75293 11.5361C6.61296 11.6436 6.4681 11.7314 6.31836 11.7998C6.16862 11.8682 6.01562 11.9186 5.85938 11.9512C5.70638 11.9837 5.56152 12 5.4248 12H0.527344V10.7305H5.4248C5.66895 10.7305 5.85775 10.6589 5.99121 10.5156C6.12793 10.3724 6.19629 10.1803 6.19629 9.93945C6.19629 9.82227 6.17839 9.71484 6.14258 9.61719C6.10677 9.51953 6.05469 9.4349 5.98633 9.36328C5.92122 9.29167 5.83984 9.23633 5.74219 9.19727C5.64779 9.1582 5.54199 9.13867 5.4248 9.13867H2.50488C2.2998 9.13867 2.07845 9.10286 1.84082 9.03125C1.60319 8.95638 1.38184 8.83757 1.17676 8.6748C0.974935 8.51204 0.805664 8.29883 0.668945 8.03516C0.535482 7.77148 0.46875 7.44922 0.46875 7.06836C0.46875 6.6875 0.535482 6.36686 0.668945 6.10645C0.805664 5.84277 0.974935 5.62956 1.17676 5.4668C1.38184 5.30078 1.60319 5.18197 1.84082 5.11035C2.07845 5.03548 2.2998 4.99805 2.50488 4.99805H6.82617V6.26758H2.50488C2.264 6.26758 2.0752 6.34082 1.93848 6.4873C1.80501 6.63379 1.73828 6.82747 1.73828 7.06836C1.73828 7.3125 1.80501 7.50618 1.93848 7.64941C2.0752 7.78939 2.264 7.85938 2.50488 7.85938H5.4248H5.43457C5.57129 7.86263 5.71615 7.88216 5.86914 7.91797C6.02214 7.95052 6.1735 8.0026 6.32324 8.07422C6.47624 8.14583 6.62109 8.23698 6.75781 8.34766C6.89453 8.45508 7.01497 8.58529 7.11914 8.73828C7.22656 8.89128 7.3112 9.06706 7.37305 9.26562C7.4349 9.46419 7.46582 9.6888 7.46582 9.93945ZM14.248 12H12.9785V8.49902C12.9785 8.33301 12.9362 8.20768 12.8516 8.12305C12.7669 8.03516 12.64 7.99121 12.4707 7.99121H10.1807V6.72168H12.4707C12.5911 6.72168 12.7181 6.73633 12.8516 6.76562C12.985 6.79167 13.1169 6.83398 13.2471 6.89258C13.3805 6.95117 13.5075 7.02767 13.6279 7.12207C13.7484 7.21322 13.8542 7.32552 13.9453 7.45898C14.0365 7.58919 14.1097 7.74056 14.165 7.91309C14.2204 8.08561 14.248 8.28092 14.248 8.49902V12ZM9.66797 12H8.39844V4.49023H9.66797V12ZM21.1523 10.2178C21.1523 10.4359 21.1247 10.6328 21.0693 10.8086C21.014 10.9811 20.9408 11.1341 20.8496 11.2676C20.7585 11.3978 20.6527 11.5101 20.5322 11.6045C20.4118 11.6956 20.2848 11.7705 20.1514 11.8291C20.0212 11.8877 19.8877 11.9316 19.751 11.9609C19.6175 11.987 19.4906 12 19.3701 12H17.0801C16.9043 12 16.7122 11.9691 16.5039 11.9072C16.2956 11.8454 16.1019 11.7445 15.9229 11.6045C15.7471 11.4613 15.599 11.2773 15.4785 11.0527C15.3613 10.8249 15.3027 10.5465 15.3027 10.2178V8.49902C15.3027 8.1735 15.3613 7.89844 15.4785 7.67383C15.599 7.44596 15.7471 7.26204 15.9229 7.12207C16.1019 6.97884 16.2956 6.8763 16.5039 6.81445C16.7122 6.7526 16.9043 6.72168 17.0801 6.72168H19.3701C19.6956 6.72168 19.9723 6.78027 20.2002 6.89746C20.4281 7.01465 20.612 7.16276 20.752 7.3418C20.8919 7.51758 20.9928 7.70964 21.0547 7.91797C21.1198 8.1263 21.1523 8.31999 21.1523 8.49902V10.2178ZM19.8828 8.50879C19.8828 8.33301 19.8389 8.2028 19.751 8.11816C19.6631 8.03353 19.5361 7.99121 19.3701 7.99121H17.0898C16.9206 7.99121 16.792 8.03516 16.7041 8.12305C16.6162 8.20768 16.5723 8.33301 16.5723 8.49902V10.2178C16.5723 10.3838 16.6162 10.5107 16.7041 10.5986C16.792 10.6865 16.9206 10.7305 17.0898 10.7305H19.3701C19.5426 10.7305 19.6712 10.6865 19.7559 10.5986C19.8405 10.5107 19.8828 10.3838 19.8828 10.2178V8.50879ZM28.0566 10.2178C28.0566 10.4359 28.029 10.6328 27.9736 10.8086C27.9183 10.9811 27.8451 11.1341 27.7539 11.2676C27.6628 11.3978 27.557 11.5101 27.4365 11.6045C27.3161 11.6956 27.1891 11.7705 27.0557 11.8291C26.9255 11.8877 26.7936 11.9316 26.6602 11.9609C26.5267 11.987 26.3997 12 26.2793 12H23.9893V10.7305H26.2793C26.4486 10.7305 26.5755 10.6865 26.6602 10.5986C26.7448 10.5107 26.7871 10.3838 26.7871 10.2178V8.50879C26.7871 8.33301 26.7432 8.2028 26.6553 8.11816C26.5706 8.03353 26.4453 7.99121 26.2793 7.99121H23.999C23.8265 7.99121 23.6963 8.03516 23.6084 8.12305C23.5205 8.20768 23.4766 8.33301 23.4766 8.49902V13.6504H22.207V8.49902C22.207 8.28092 22.2347 8.08561 22.29 7.91309C22.3454 7.74056 22.4186 7.58919 22.5098 7.45898C22.6042 7.32552 22.7116 7.21322 22.832 7.12207C22.9525 7.02767 23.0778 6.95117 23.208 6.89258C23.3415 6.83398 23.4749 6.79167 23.6084 6.76562C23.7451 6.73633 23.8721 6.72168 23.9893 6.72168H26.2793C26.4974 6.72168 26.6927 6.74935 26.8652 6.80469C27.0378 6.86003 27.1891 6.93327 27.3193 7.02441C27.4528 7.11556 27.5651 7.22135 27.6562 7.3418C27.7507 7.46224 27.8271 7.58919 27.8857 7.72266C27.9443 7.85286 27.9867 7.9847 28.0127 8.11816C28.042 8.25163 28.0566 8.37858 28.0566 8.49902V10.2178ZM30.4297 5.6377H29.1602V4.49023H30.4297V5.6377ZM30.4297 12H29.1602V6.72168H30.4297V12ZM36.4502 7.99121H34.2334V12H32.9492V7.99121H31.2988V6.72168H32.9492V4.99805H34.2334V6.72168H36.4502V7.99121Z" fill="black"/>
<path d="M38.9932 10.6162C38.9932 10.6689 38.9824 10.7188 38.9609 10.7656C38.9414 10.8105 38.9141 10.8506 38.8789 10.8857C38.8457 10.9189 38.8057 10.9453 38.7588 10.9648C38.7139 10.9844 38.666 10.9941 38.6152 10.9941C38.5625 10.9941 38.5127 10.9844 38.4658 10.9648C38.4209 10.9453 38.3809 10.9189 38.3457 10.8857C38.3125 10.8506 38.2861 10.8105 38.2666 10.7656C38.2471 10.7188 38.2373 10.6689 38.2373 10.6162C38.2373 10.5654 38.2471 10.5176 38.2666 10.4727C38.2861 10.4258 38.3125 10.3857 38.3457 10.3525C38.3809 10.3174 38.4209 10.29 38.4658 10.2705C38.5127 10.249 38.5625 10.2383 38.6152 10.2383C38.666 10.2383 38.7139 10.249 38.7588 10.2705C38.8057 10.29 38.8457 10.3174 38.8789 10.3525C38.9141 10.3857 38.9414 10.4258 38.9609 10.4727C38.9824 10.5176 38.9932 10.5654 38.9932 10.6162ZM43.0977 11H42.3359V9.24219C42.3359 9.14258 42.3184 9.05371 42.2832 8.97559C42.25 8.89551 42.2041 8.82715 42.1455 8.77051C42.0869 8.71387 42.0176 8.6709 41.9375 8.6416C41.8594 8.61035 41.7744 8.59473 41.6826 8.59473H40.3496V11H39.5879V8.21094C39.5879 8.1582 39.5977 8.10938 39.6172 8.06445C39.6367 8.01758 39.6641 7.97754 39.6992 7.94434C39.7344 7.90918 39.7754 7.88184 39.8223 7.8623C39.8691 7.84277 39.9189 7.83301 39.9717 7.83301H41.6885C41.7842 7.83301 41.8848 7.84375 41.9902 7.86523C42.0977 7.88672 42.2031 7.92188 42.3066 7.9707C42.4121 8.01758 42.5117 8.07812 42.6055 8.15234C42.7012 8.22461 42.7852 8.31348 42.8574 8.41895C42.9316 8.52246 42.9902 8.64258 43.0332 8.7793C43.0762 8.91602 43.0977 9.07031 43.0977 9.24219V11ZM47.2109 9.93066C47.2109 10.0615 47.1943 10.1797 47.1611 10.2852C47.1279 10.3887 47.084 10.4805 47.0293 10.5605C46.9746 10.6387 46.9111 10.7061 46.8389 10.7627C46.7666 10.8174 46.6904 10.8623 46.6104 10.8975C46.5322 10.9326 46.4521 10.959 46.3701 10.9766C46.29 10.9922 46.2139 11 46.1416 11H44.7676C44.6621 11 44.5469 10.9814 44.4219 10.9443C44.2969 10.9072 44.1807 10.8467 44.0732 10.7627C43.9678 10.6768 43.8789 10.5664 43.8066 10.4316C43.7363 10.2949 43.7012 10.1279 43.7012 9.93066V8.89941C43.7012 8.7041 43.7363 8.53906 43.8066 8.4043C43.8789 8.26758 43.9678 8.15723 44.0732 8.07324C44.1807 7.9873 44.2969 7.92578 44.4219 7.88867C44.5469 7.85156 44.6621 7.83301 44.7676 7.83301H46.1416C46.3369 7.83301 46.5029 7.86816 46.6396 7.93848C46.7764 8.00879 46.8867 8.09766 46.9707 8.20508C47.0547 8.31055 47.1152 8.42578 47.1523 8.55078C47.1914 8.67578 47.2109 8.79199 47.2109 8.89941V9.93066ZM46.4492 8.90527C46.4492 8.7998 46.4229 8.72168 46.3701 8.6709C46.3174 8.62012 46.2412 8.59473 46.1416 8.59473H44.7734C44.6719 8.59473 44.5947 8.62109 44.542 8.67383C44.4893 8.72461 44.4629 8.7998 44.4629 8.89941V9.93066C44.4629 10.0303 44.4893 10.1064 44.542 10.1592C44.5947 10.2119 44.6719 10.2383 44.7734 10.2383H46.1416C46.2451 10.2383 46.3223 10.2119 46.373 10.1592C46.4238 10.1064 46.4492 10.0303 46.4492 9.93066V8.90527ZM53.0762 7.83301C52.9551 8.10449 52.8242 8.37207 52.6836 8.63574C52.543 8.89746 52.3955 9.14551 52.2412 9.37988C52.0889 9.61426 51.9326 9.83105 51.7725 10.0303C51.6123 10.2275 51.4531 10.3984 51.2949 10.543C51.1387 10.6855 50.9854 10.7979 50.835 10.8799C50.6865 10.96 50.5459 11 50.4131 11C50.3584 11 50.3076 10.9902 50.2607 10.9707C50.2139 10.9512 50.1729 10.9248 50.1377 10.8916C50.1025 10.8564 50.0752 10.8154 50.0557 10.7686C50.0361 10.7217 50.0264 10.6709 50.0264 10.6162V9.19531L48.5146 10.8857C48.4756 10.9248 48.4326 10.9541 48.3857 10.9736C48.3408 10.9912 48.2939 11 48.2451 11C48.1924 11 48.1426 10.9902 48.0957 10.9707C48.0508 10.9512 48.0107 10.9248 47.9756 10.8916C47.9404 10.8564 47.9121 10.8154 47.8906 10.7686C47.8711 10.7217 47.8613 10.6709 47.8613 10.6162V7.83301H48.623V9.6377L50.1406 7.94141C50.1953 7.88672 50.2598 7.85254 50.334 7.83887C50.4102 7.82324 50.4844 7.83105 50.5566 7.8623C50.6289 7.8916 50.6855 7.93848 50.7266 8.00293C50.7695 8.06543 50.791 8.13477 50.791 8.21094V10.0215C50.9551 9.86328 51.1035 9.69629 51.2363 9.52051C51.3691 9.34473 51.4922 9.16406 51.6055 8.97852C51.7207 8.79102 51.8281 8.60156 51.9277 8.41016C52.0293 8.2168 52.1279 8.02441 52.2236 7.83301H53.0762Z" fill="white"/>
</svg>
